<svg width="21" height="20" viewBox="0 0 21 20" fill="none" xmlns="http://www.w3.org/2000/svg">
    <path fill-rule="evenodd" clip-rule="evenodd" d="M6.81425 1.66667C5.70918 1.66667 4.64937 2.10566 3.86797 2.88706C3.08657 3.66846 2.64758 4.72827 2.64758 5.83334V14.1667C2.64758 15.2717 3.08657 16.3315 3.86797 17.1129C4.64937 17.8944 5.70918 18.3333 6.81425 18.3333H15.1476C16.2527 18.3333 17.3125 17.8944 18.0939 17.1129C18.8753 16.3315 19.3142 15.2717 19.3142 14.1667V5.83334C19.3142 4.72827 18.8753 3.66846 18.0939 2.88706C17.3125 2.10566 16.2527 1.66667 15.1476 1.66667H6.81425ZM14.0892 8.90334C14.1641 8.82345 14.2225 8.7296 14.2611 8.62715C14.2997 8.5247 14.3177 8.41565 14.3141 8.30623C14.3106 8.19681 14.2855 8.08917 14.2403 7.98944C14.1952 7.88971 14.1308 7.79986 14.0509 7.72501C13.971 7.65015 13.8772 7.59177 13.7747 7.55318C13.6723 7.5146 13.5632 7.49657 13.4538 7.50013C13.3444 7.50369 13.2367 7.52877 13.137 7.57393C13.0373 7.61909 12.9474 7.68345 12.8726 7.76334L10.3034 10.505L9.03425 9.37751C8.86796 9.23927 8.65446 9.17109 8.43883 9.18735C8.22321 9.20362 8.02235 9.30307 7.87868 9.46469C7.73502 9.62631 7.65981 9.83744 7.66894 10.0535C7.67806 10.2695 7.77081 10.4736 7.92758 10.6225L9.80258 12.2892C9.96482 12.4333 10.1769 12.5084 10.3937 12.4986C10.6104 12.4888 10.8148 12.3948 10.9634 12.2367L14.0884 8.90334H14.0892Z" fill="#885FFF"/>
</svg>
