<svg width="25" height="24" viewBox="0 0 25 24" fill="none" xmlns="http://www.w3.org/2000/svg">
    <path d="M17.738 2.99998L15.738 4.99998H5.98096V19H19.981V9.24298L21.981 7.24298V20C21.981 20.2652 21.8756 20.5195 21.6881 20.7071C21.5005 20.8946 21.2462 21 20.981 21H4.98096C4.71574 21 4.46139 20.8946 4.27385 20.7071C4.08631 20.5195 3.98096 20.2652 3.98096 20V3.99998C3.98096 3.73476 4.08631 3.48041 4.27385 3.29287C4.46139 3.10533 4.71574 2.99998 4.98096 2.99998H17.738ZM21.466 2.09998L22.881 3.51598L13.689 12.708L12.277 12.711L12.275 11.294L21.466 2.09998Z" fill="#587BE0"/>
</svg>
