<svg width="17" height="16" viewBox="0 0 17 16" fill="none" xmlns="http://www.w3.org/2000/svg">
<path d="M5.64761 5.33333C6.75218 5.33333 7.64761 4.4379 7.64761 3.33333C7.64761 2.22876 6.75218 1.33333 5.64761 1.33333C4.54304 1.33333 3.64761 2.22876 3.64761 3.33333C3.64761 4.4379 4.54304 5.33333 5.64761 5.33333Z" fill="#6F6E73"/>
<path d="M7.64759 8H4.91293C4.42554 8.00014 3.95498 8.17824 3.58965 8.50085C3.22432 8.82346 2.98936 9.26838 2.92893 9.752L2.50159 13.168C2.47815 13.3556 2.49487 13.5461 2.55066 13.7267C2.60645 13.9074 2.70003 14.0741 2.82518 14.2159C2.95033 14.3576 3.10419 14.4711 3.27656 14.5488C3.44892 14.6265 3.63585 14.6667 3.82493 14.6667H6.98093" fill="#6F6E73"/>
<path d="M15.4603 13.168L15.0336 9.752C14.9731 9.26815 14.738 8.82305 14.3724 8.50041C14.0068 8.17777 13.5359 7.99981 13.0483 8H11.5789C11.0916 8.00014 10.621 8.17824 10.2557 8.50085C9.89033 8.82347 9.65538 9.26838 9.59494 9.752L9.16761 13.168C9.14416 13.3557 9.1609 13.5462 9.21673 13.7269C9.27256 13.9076 9.36619 14.0744 9.49141 14.2161C9.61664 14.3579 9.77058 14.4713 9.94303 14.549C10.1155 14.6267 10.3025 14.6668 10.4916 14.6667H14.1369C14.326 14.6667 14.5129 14.6265 14.6853 14.5488C14.8577 14.4711 15.0115 14.3576 15.1367 14.2159C15.2618 14.0741 15.3554 13.9074 15.4112 13.7267C15.467 13.5461 15.4837 13.3556 15.4603 13.168Z" fill="#6F6E73"/>
<path d="M12.3143 5.33333C13.4189 5.33333 14.3143 4.4379 14.3143 3.33333C14.3143 2.22876 13.4189 1.33333 12.3143 1.33333C11.2097 1.33333 10.3143 2.22876 10.3143 3.33333C10.3143 4.4379 11.2097 5.33333 12.3143 5.33333Z" fill="#6F6E73"/>
</svg>
