<svg width="36" height="35" viewBox="0 0 36 35" fill="none" xmlns="http://www.w3.org/2000/svg">
<circle cx="18.481" cy="17.5" r="17.5" fill="#54AAF9"/>
<g clip-path="url(#clip0_2_2487)">
<path d="M9.73096 14L10.872 14.9126C11.2695 15.2306 11.7315 15.458 12.2259 15.579C12.7203 15.7 13.2352 15.7117 13.7346 15.6134C14.234 15.515 14.7059 15.3089 15.1175 15.0094C15.5291 14.7099 15.8704 14.3242 16.1176 13.8792L18.481 9.625L20.8443 13.8792C21.0916 14.3241 21.433 14.7097 21.8446 15.0091C22.2562 15.3085 22.7281 15.5146 23.2275 15.6129C23.7269 15.7112 24.2418 15.6994 24.7361 15.5783C25.2305 15.4572 25.6925 15.2297 26.09 14.9117L27.231 14L25.6962 21.6738C25.6292 22.0086 25.4866 22.3238 25.2793 22.5952C25.072 22.8667 24.8055 23.0872 24.5001 23.24V23.24C22.6312 24.1745 20.5704 24.661 18.481 24.661C16.3915 24.661 14.3307 24.1745 12.4618 23.24V23.24C12.1564 23.0872 11.8899 22.8667 11.6826 22.5952C11.4753 22.3238 11.3327 22.0086 11.2657 21.6738L9.73096 14Z" stroke="white" stroke-width="2" stroke-linecap="round" stroke-linejoin="round"/>
<path d="M14.981 20.125C17.2525 21.2914 19.7095 21.2914 21.981 20.125" stroke="white" stroke-width="2" stroke-linecap="round" stroke-linejoin="round"/>
</g>
<defs>
<clipPath id="clip0_2_2487">
<rect width="21" height="21" fill="white" transform="translate(7.98096 7)"/>
</clipPath>
</defs>
</svg>
