<svg width="35" height="35" viewBox="0 0 35 35" fill="none" xmlns="http://www.w3.org/2000/svg">
<circle cx="17.5" cy="17.5" r="17.5" fill="#F98F54"/>
<path d="M25.375 21V14C25.3747 13.6931 25.2937 13.3917 25.1401 13.126C24.9865 12.8603 24.7658 12.6397 24.5 12.4862L18.375 8.98625C18.109 8.83265 17.8072 8.75179 17.5 8.75179C17.1928 8.75179 16.891 8.83265 16.625 8.98625L10.5 12.4862C10.2342 12.6397 10.0135 12.8603 9.8599 13.126C9.70632 13.3917 9.62531 13.6931 9.625 14V21C9.62531 21.3069 9.70632 21.6083 9.8599 21.874C10.0135 22.1397 10.2342 22.3603 10.5 22.5137L16.625 26.0137C16.891 26.1673 17.1928 26.2482 17.5 26.2482C17.8072 26.2482 18.109 26.1673 18.375 26.0137L24.5 22.5137C24.7658 22.3603 24.9865 22.1397 25.1401 21.874C25.2937 21.6083 25.3747 21.3069 25.375 21Z" stroke="white" stroke-width="2" stroke-linecap="round" stroke-linejoin="round"/>
<path d="M9.86124 13.09L17.5 17.5087L25.1387 13.09" stroke="white" stroke-width="2" stroke-linecap="round" stroke-linejoin="round"/>
<path d="M17.5 26.32V17.5" stroke="white" stroke-width="2" stroke-linecap="round" stroke-linejoin="round"/>
</svg>
