<svg width="35" height="35" viewBox="0 0 35 35" fill="none" xmlns="http://www.w3.org/2000/svg">
<circle cx="17.5" cy="17.5" r="17.5" fill="#414047"/>
<path d="M14.875 20.125L12.278 22.722C11.989 23.011 11.6207 23.2078 11.2199 23.2875C10.819 23.3672 10.4035 23.3263 10.0259 23.1699C9.64827 23.0135 9.32552 22.7486 9.09841 22.4088C8.87131 22.069 8.75006 21.6695 8.75 21.2608V20.125L9.93738 14.189C10.096 13.3956 10.5246 12.6816 11.1502 12.1685C11.7759 11.6555 12.56 11.3751 13.3691 11.375H21.6309C22.44 11.3751 23.2241 11.6555 23.8498 12.1685C24.4754 12.6816 24.904 13.3956 25.0626 14.189L26.25 20.125V21.2599C26.2499 21.6686 26.1287 22.0681 25.9016 22.4079C25.6745 22.7477 25.3517 23.0126 24.9741 23.169C24.5965 23.3254 24.181 23.3663 23.7801 23.2866C23.3793 23.2069 23.011 23.0101 22.722 22.7211L20.125 20.125H14.875Z" stroke="white" stroke-width="2" stroke-linecap="round" stroke-linejoin="round"/>
<path d="M14.875 11.375L15.75 13.125H19.25L20.125 11.375" stroke="white" stroke-width="2" stroke-linecap="round" stroke-linejoin="round"/>
</svg>
