<svg width="35" height="35" viewBox="0 0 35 35" fill="none" xmlns="http://www.w3.org/2000/svg">
<circle cx="17.5" cy="17.5" r="17.5" fill="#34AE91"/>
<path d="M10.4799 15.61C10.5151 15.1715 10.7142 14.7623 11.0375 14.4639C11.3608 14.1655 11.7847 13.9999 12.2246 14H22.7754C23.2153 13.9999 23.6392 14.1655 23.9625 14.4639C24.2858 14.7623 24.4849 15.1715 24.5201 15.61L25.2227 24.36C25.2421 24.6008 25.2113 24.843 25.1325 25.0713C25.0536 25.2996 24.9283 25.5092 24.7645 25.6867C24.6007 25.8643 24.4019 26.006 24.1806 26.1029C23.9594 26.1998 23.7204 26.2499 23.4789 26.25H11.5211C11.2796 26.2499 11.0406 26.1998 10.8194 26.1029C10.5981 26.006 10.3993 25.8643 10.2355 25.6867C10.0717 25.5092 9.94638 25.2996 9.86752 25.0713C9.78866 24.843 9.75792 24.6008 9.77725 24.36L10.4799 15.61V15.61Z" stroke="white" stroke-width="2" stroke-linecap="round" stroke-linejoin="round"/>
<path d="M21 16.625V12.25C21 11.3217 20.6313 10.4315 19.9749 9.77513C19.3185 9.11875 18.4283 8.75 17.5 8.75C16.5717 8.75 15.6815 9.11875 15.0251 9.77513C14.3687 10.4315 14 11.3217 14 12.25V16.625" stroke="white" stroke-width="2" stroke-linecap="round" stroke-linejoin="round"/>
</svg>
