<svg width="36" height="35" viewBox="0 0 36 35" fill="none" xmlns="http://www.w3.org/2000/svg">
<circle cx="18.481" cy="17.5" r="17.5" fill="#885FFF"/>
<g clip-path="url(#clip0_2_2497)">
<path d="M12.7357 16.1132C15.1428 16.1132 17.0942 14.1618 17.0942 11.7547C17.0942 9.34759 15.1428 7.39623 12.7357 7.39623C10.3285 7.39623 8.37718 9.34759 8.37718 11.7547C8.37718 14.1618 10.3285 16.1132 12.7357 16.1132Z" fill="white"/>
</g>
<g clip-path="url(#clip1_2_2497)">
<path d="M23.5467 8.52863C23.8546 8.01592 24.5979 8.01592 24.9058 8.52863L28.261 14.1206C28.578 14.6487 28.1976 15.3207 27.5815 15.3207H20.871C20.2553 15.3207 19.8749 14.6487 20.1915 14.1206L23.5467 8.52863V8.52863Z" fill="white"/>
</g>
<g clip-path="url(#clip2_2_2497)">
<path d="M27.3961 19.283H21.0564C20.6188 19.283 20.264 19.6378 20.264 20.0755V26.4151C20.264 26.8528 20.6188 27.2075 21.0564 27.2075H27.3961C27.8337 27.2075 28.1885 26.8528 28.1885 26.4151V20.0755C28.1885 19.6378 27.8337 19.283 27.3961 19.283Z" fill="white"/>
<g clip-path="url(#clip3_2_2497)">
<path d="M23.6754 19.5112C23.8215 19.3652 24.0196 19.2831 24.2262 19.2831C24.4327 19.2831 24.6308 19.3652 24.7769 19.5112L27.9602 22.6945C28.1062 22.8406 28.1883 23.0387 28.1883 23.2453C28.1883 23.4518 28.1062 23.6499 27.9602 23.796L24.7769 26.9793C24.6308 27.1254 24.4327 27.2074 24.2262 27.2074C24.0196 27.2074 23.8215 27.1254 23.6754 26.9793L20.4921 23.796C20.3461 23.6499 20.264 23.4518 20.264 23.2453C20.264 23.0387 20.3461 22.8406 20.4921 22.6945L23.6754 19.5112V19.5112Z" fill="white"/>
</g>
</g>
<path d="M12.1848 19.5112C12.3309 19.3652 12.529 19.2831 12.7356 19.2831C12.9422 19.2831 13.1403 19.3652 13.2863 19.5112L16.4696 22.6945C16.6157 22.8406 16.6977 23.0387 16.6977 23.2453C16.6977 23.4518 16.6157 23.6499 16.4696 23.796L13.2863 26.9793C13.1403 27.1254 12.9422 27.2074 12.7356 27.2074C12.529 27.2074 12.3309 27.1254 12.1848 26.9793L9.00155 23.796C8.8555 23.6499 8.77346 23.4518 8.77346 23.2453C8.77346 23.0387 8.8555 22.8406 9.00155 22.6945L12.1848 19.5112V19.5112Z" fill="white"/>
<defs>
<clipPath id="clip0_2_2497">
<rect width="9.50943" height="9.50943" fill="white" transform="translate(7.98096 7)"/>
</clipPath>
<clipPath id="clip1_2_2497">
<rect width="9.50943" height="9.50943" fill="white" transform="translate(19.4715 7)"/>
</clipPath>
<clipPath id="clip2_2_2497">
<rect width="9.50943" height="9.50943" fill="white" transform="translate(19.4715 18.4906)"/>
</clipPath>
<clipPath id="clip3_2_2497">
<rect width="9.50943" height="9.50943" fill="white" transform="translate(19.4715 18.4906)"/>
</clipPath>
</defs>
</svg>
