<svg width="172" height="36" viewBox="0 0 172 36" fill="none" xmlns="http://www.w3.org/2000/svg">
    <path d="M0 10.4511C0 9.1034 0.591797 7.82368 1.61867 6.95084L8.5095 1.09363C10.225 -0.36454 12.7445 -0.364543 14.46 1.09362L21.3508 6.95084C22.3777 7.82367 22.9695 9.1034 22.9695 10.4511V22.1084C22.9695 24.6455 20.9127 26.7023 18.3756 26.7023H4.59389C2.05676 26.7023 0 24.6455 0 22.1084V10.4511Z" fill="#33373B"/>
    <path d="M4.44629 13.7488C4.44629 12.4011 5.03809 11.1214 6.06495 10.2486L12.9558 4.39136C14.6713 2.93319 17.1908 2.93319 18.9062 4.39135L25.7971 10.2486C26.824 11.1214 27.4158 12.4011 27.4158 13.7488V25.4061C27.4158 27.9432 25.359 30 22.8219 30H9.04018C6.50304 30 4.44629 27.9432 4.44629 25.4061V13.7488Z" fill="white"/>
    <path d="M34 28.6769V8H37.4605V16.7015H47.2533V8H50.6995V28.6769H47.2533V19.9467H37.4605V28.6769H34Z" fill="white"/>
    <path d="M60.1385 29.1077C58.5877 29.1077 57.2332 28.7583 56.0749 28.0595C54.9166 27.3607 54.0168 26.3986 53.3754 25.1733C52.7436 23.9385 52.4277 22.5217 52.4277 20.9231C52.4277 19.2957 52.7532 17.8694 53.4041 16.6441C54.0551 15.4188 54.9597 14.4615 56.118 13.7723C57.2763 13.0831 58.6164 12.7385 60.1385 12.7385C61.6988 12.7385 63.0582 13.0879 64.2164 13.7867C65.3747 14.4855 66.2746 15.4523 66.9159 16.6872C67.5573 17.9125 67.878 19.3244 67.878 20.9231C67.878 22.5313 67.5525 23.9528 66.9016 25.1877C66.2602 26.413 65.3604 27.375 64.2021 28.0738C63.0438 28.7631 61.6893 29.1077 60.1385 29.1077ZM60.1385 25.8626C61.517 25.8626 62.5412 25.4031 63.2113 24.4841C63.8814 23.5651 64.2164 22.3781 64.2164 20.9231C64.2164 19.4202 63.8766 18.2236 63.197 17.3333C62.5173 16.4335 61.4978 15.9836 60.1385 15.9836C59.2099 15.9836 58.4441 16.1942 57.8411 16.6154C57.2476 17.027 56.8072 17.6062 56.52 18.3528C56.2329 19.0899 56.0893 19.9467 56.0893 20.9231C56.0893 22.426 56.4291 23.6274 57.1087 24.5272C57.798 25.4174 58.8079 25.8626 60.1385 25.8626Z" fill="white"/>
    <path d="M88.2294 28.6769V19.2574C88.2294 18.1949 87.9661 17.3668 87.4396 16.7733C86.9131 16.1703 86.2 15.8687 85.3001 15.8687C84.7449 15.8687 84.2471 15.998 83.8068 16.2564C83.3665 16.5053 83.0171 16.8786 82.7586 17.3764C82.5001 17.8646 82.3709 18.4485 82.3709 19.1282L80.8345 18.2236C80.8249 17.1515 81.0642 16.2085 81.5524 15.3949C82.0502 14.5716 82.7203 13.9303 83.5627 13.4708C84.4051 13.0113 85.3432 12.7815 86.3771 12.7815C88.0906 12.7815 89.402 13.2985 90.3114 14.3323C91.2304 15.3566 91.6899 16.7063 91.6899 18.3815V28.6769H88.2294ZM69.577 28.6769V13.1692H72.6355V17.9795H73.0663V28.6769H69.577ZM78.9247 28.6769V19.3005C78.9247 18.2188 78.6615 17.3764 78.135 16.7733C77.6085 16.1703 76.8906 15.8687 75.9812 15.8687C75.1005 15.8687 74.3921 16.1703 73.856 16.7733C73.3295 17.3764 73.0663 18.1614 73.0663 19.1282L71.5155 18.0944C71.5155 17.0892 71.7644 16.1846 72.2622 15.3805C72.76 14.5764 73.43 13.9446 74.2724 13.4851C75.1244 13.0161 76.0769 12.7815 77.1299 12.7815C78.2882 12.7815 79.255 13.0304 80.0304 13.5282C80.8153 14.0164 81.3993 14.6865 81.7822 15.5385C82.1747 16.3809 82.3709 17.3333 82.3709 18.3959V28.6769H78.9247Z" fill="white"/>
    <path d="M100.797 29.1077C99.2271 29.1077 97.8487 28.7679 96.6617 28.0882C95.4747 27.4086 94.5461 26.4656 93.876 25.2595C93.2155 24.0533 92.8853 22.6653 92.8853 21.0954C92.8853 19.401 93.2107 17.9316 93.8617 16.6872C94.5126 15.4332 95.4172 14.4615 96.5755 13.7723C97.7338 13.0831 99.074 12.7385 100.596 12.7385C102.204 12.7385 103.568 13.1166 104.688 13.8728C105.818 14.6195 106.656 15.6773 107.201 17.0462C107.747 18.415 107.953 20.028 107.819 21.8851H104.387V20.6215C104.377 18.9368 104.08 17.7067 103.497 16.9313C102.913 16.1559 101.994 15.7682 100.74 15.7682C99.3229 15.7682 98.2699 16.2085 97.5806 17.0892C96.8914 17.9603 96.5468 19.2383 96.5468 20.9231C96.5468 22.493 96.8914 23.7087 97.5806 24.5703C98.2699 25.4318 99.275 25.8626 100.596 25.8626C101.448 25.8626 102.18 25.6759 102.793 25.3026C103.415 24.9197 103.894 24.3692 104.229 23.6513L107.646 24.6851C107.053 26.0827 106.134 27.1692 104.889 27.9446C103.654 28.72 102.29 29.1077 100.797 29.1077ZM95.4555 21.8851V19.2718H106.124V21.8851H95.4555Z" fill="white"/>
    <path d="M109.587 28.6769V8H118.13C118.331 8 118.59 8.00957 118.906 8.02872C119.221 8.03829 119.513 8.06701 119.781 8.11487C120.978 8.29675 121.964 8.69402 122.739 9.30667C123.524 9.91932 124.103 10.6947 124.477 11.6328C124.86 12.5614 125.051 13.5952 125.051 14.7344C125.051 15.8639 124.86 16.8978 124.477 17.8359C124.094 18.7644 123.51 19.535 122.725 20.1477C121.95 20.7603 120.968 21.1576 119.781 21.3395C119.513 21.3778 119.217 21.4065 118.891 21.4256C118.575 21.4448 118.322 21.4544 118.13 21.4544H113.047V28.6769H109.587ZM113.047 18.2236H117.987C118.178 18.2236 118.393 18.214 118.633 18.1949C118.872 18.1757 119.092 18.1374 119.293 18.08C119.868 17.9364 120.317 17.6827 120.643 17.319C120.978 16.9552 121.213 16.5436 121.347 16.0841C121.49 15.6246 121.562 15.1747 121.562 14.7344C121.562 14.294 121.49 13.8441 121.347 13.3846C121.213 12.9156 120.978 12.4991 120.643 12.1354C120.317 11.7716 119.868 11.5179 119.293 11.3744C119.092 11.3169 118.872 11.2834 118.633 11.2738C118.393 11.2547 118.178 11.2451 117.987 11.2451H113.047V18.2236Z" fill="white"/>
    <path d="M130.436 29.1077C129.316 29.1077 128.368 28.8971 127.593 28.4759C126.817 28.0451 126.229 27.4756 125.827 26.7672C125.434 26.0588 125.238 25.2786 125.238 24.4267C125.238 23.68 125.362 23.0099 125.611 22.4164C125.86 21.8133 126.243 21.2964 126.76 20.8656C127.277 20.4253 127.947 20.0663 128.77 19.7887C129.392 19.5877 130.12 19.4058 130.953 19.2431C131.795 19.0803 132.704 18.932 133.681 18.7979C134.667 18.6544 135.696 18.5012 136.768 18.3385L135.533 19.0421C135.543 17.9699 135.303 17.1802 134.815 16.6728C134.327 16.1655 133.504 15.9118 132.346 15.9118C131.647 15.9118 130.972 16.0745 130.321 16.4C129.67 16.7255 129.215 17.2855 128.957 18.08L125.798 17.0892C126.181 15.7778 126.908 14.7248 127.98 13.9303C129.062 13.1357 130.517 12.7385 132.346 12.7385C133.724 12.7385 134.935 12.9634 135.978 13.4133C137.031 13.8632 137.812 14.6003 138.319 15.6246C138.596 16.1703 138.764 16.7303 138.821 17.3046C138.879 17.8694 138.908 18.4868 138.908 19.1569V28.6769H135.878V25.3169L136.38 25.8626C135.682 26.9826 134.863 27.8058 133.925 28.3323C132.996 28.8492 131.833 29.1077 130.436 29.1077ZM131.125 26.3508C131.91 26.3508 132.58 26.212 133.135 25.9344C133.69 25.6568 134.131 25.3169 134.456 24.9149C134.791 24.5128 135.016 24.1347 135.131 23.7805C135.313 23.3402 135.414 22.8376 135.433 22.2728C135.461 21.6985 135.476 21.2342 135.476 20.88L136.538 21.1959C135.495 21.3586 134.6 21.5022 133.853 21.6267C133.107 21.7511 132.465 21.8708 131.929 21.9856C131.393 22.0909 130.919 22.2106 130.508 22.3446C130.106 22.4882 129.766 22.6557 129.488 22.8472C129.21 23.0386 128.995 23.2588 128.842 23.5077C128.698 23.7566 128.627 24.0485 128.627 24.3836C128.627 24.7665 128.722 25.1063 128.914 25.4031C129.105 25.6903 129.383 25.92 129.747 26.0923C130.12 26.2646 130.579 26.3508 131.125 26.3508Z" fill="white"/>
    <path d="M147.729 36C146.867 36 146.039 35.866 145.245 35.598C144.46 35.3299 143.751 34.9422 143.12 34.4349C142.488 33.9371 141.971 33.334 141.569 32.6256L144.757 31.0462C145.053 31.6109 145.47 32.0274 146.006 32.2954C146.551 32.573 147.131 32.7118 147.743 32.7118C148.461 32.7118 149.103 32.5826 149.667 32.3241C150.232 32.0752 150.668 31.7019 150.974 31.2041C151.29 30.7159 151.438 30.1033 151.419 29.3662V24.9579H151.85V13.1692H154.88V29.4236C154.88 29.8161 154.861 30.1894 154.822 30.5436C154.794 30.9074 154.741 31.2615 154.664 31.6062C154.435 32.6113 153.994 33.4345 153.343 34.0759C152.692 34.7268 151.883 35.2103 150.917 35.5262C149.959 35.8421 148.897 36 147.729 36ZM147.427 29.1077C146.001 29.1077 144.757 28.7487 143.694 28.0308C142.631 27.3128 141.808 26.3364 141.224 25.1015C140.64 23.8667 140.348 22.4738 140.348 20.9231C140.348 19.3532 140.64 17.9556 141.224 16.7303C141.818 15.4954 142.655 14.5238 143.737 13.8154C144.819 13.0974 146.092 12.7385 147.557 12.7385C149.031 12.7385 150.266 13.0974 151.261 13.8154C152.266 14.5238 153.027 15.4954 153.544 16.7303C154.061 17.9651 154.32 19.3627 154.32 20.9231C154.32 22.4643 154.061 23.8571 153.544 25.1015C153.027 26.3364 152.257 27.3128 151.232 28.0308C150.208 28.7487 148.94 29.1077 147.427 29.1077ZM147.959 26.0062C148.887 26.0062 149.634 25.7956 150.199 25.3744C150.773 24.9436 151.189 24.3453 151.448 23.5795C151.716 22.8137 151.85 21.9282 151.85 20.9231C151.85 19.9084 151.716 19.0229 151.448 18.2667C151.189 17.5009 150.783 16.9074 150.227 16.4862C149.672 16.0554 148.954 15.84 148.074 15.84C147.145 15.84 146.379 16.0697 145.776 16.5292C145.173 16.9791 144.728 17.5918 144.441 18.3672C144.154 19.133 144.01 19.985 144.01 20.9231C144.01 21.8708 144.149 22.7323 144.426 23.5077C144.714 24.2735 145.149 24.8814 145.733 25.3313C146.317 25.7812 147.059 26.0062 147.959 26.0062Z" fill="white"/>
    <path d="M164.521 29.1077C162.951 29.1077 161.572 28.7679 160.385 28.0882C159.198 27.4086 158.27 26.4656 157.6 25.2595C156.939 24.0533 156.609 22.6653 156.609 21.0954C156.609 19.401 156.934 17.9316 157.585 16.6872C158.236 15.4332 159.141 14.4615 160.299 13.7723C161.457 13.0831 162.798 12.7385 164.32 12.7385C165.928 12.7385 167.292 13.1166 168.412 13.8728C169.541 14.6195 170.379 15.6773 170.925 17.0462C171.47 18.415 171.676 20.028 171.542 21.8851H168.11V20.6215C168.101 18.9368 167.804 17.7067 167.22 16.9313C166.636 16.1559 165.717 15.7682 164.463 15.7682C163.046 15.7682 161.993 16.2085 161.304 17.0892C160.615 17.9603 160.27 19.2383 160.27 20.9231C160.27 22.493 160.615 23.7087 161.304 24.5703C161.993 25.4318 162.999 25.8626 164.32 25.8626C165.172 25.8626 165.904 25.6759 166.517 25.3026C167.139 24.9197 167.617 24.3692 167.952 23.6513L171.37 24.6851C170.776 26.0827 169.857 27.1692 168.613 27.9446C167.378 28.72 166.014 29.1077 164.521 29.1077ZM159.179 21.8851V19.2718H169.848V21.8851H159.179Z" fill="white"/>
    <mask id="mask0_2_300" style="mask-type:alpha" maskUnits="userSpaceOnUse" x="34" y="8" width="138" height="28">
        <path d="M34 28.6769V8H37.4605V16.7015H47.2533V8H50.6995V28.6769H47.2533V19.9467H37.4605V28.6769H34Z" fill="#9DB7FF"/>
        <path d="M60.1385 29.1077C58.5877 29.1077 57.2332 28.7583 56.0749 28.0595C54.9166 27.3607 54.0168 26.3986 53.3754 25.1733C52.7436 23.9385 52.4277 22.5217 52.4277 20.9231C52.4277 19.2957 52.7532 17.8694 53.4041 16.6441C54.0551 15.4188 54.9597 14.4615 56.118 13.7723C57.2763 13.0831 58.6164 12.7385 60.1385 12.7385C61.6988 12.7385 63.0582 13.0879 64.2164 13.7867C65.3747 14.4855 66.2746 15.4523 66.9159 16.6872C67.5573 17.9125 67.878 19.3244 67.878 20.9231C67.878 22.5313 67.5525 23.9528 66.9016 25.1877C66.2602 26.413 65.3604 27.375 64.2021 28.0738C63.0438 28.7631 61.6893 29.1077 60.1385 29.1077ZM60.1385 25.8626C61.517 25.8626 62.5412 25.4031 63.2113 24.4841C63.8814 23.5651 64.2164 22.3781 64.2164 20.9231C64.2164 19.4202 63.8766 18.2236 63.197 17.3333C62.5173 16.4335 61.4978 15.9836 60.1385 15.9836C59.2099 15.9836 58.4441 16.1942 57.8411 16.6154C57.2476 17.027 56.8072 17.6062 56.52 18.3528C56.2329 19.0899 56.0893 19.9467 56.0893 20.9231C56.0893 22.426 56.4291 23.6274 57.1087 24.5272C57.798 25.4174 58.8079 25.8626 60.1385 25.8626Z" fill="#9DB7FF"/>
        <path d="M88.2294 28.6769V19.2574C88.2294 18.1949 87.9661 17.3668 87.4396 16.7733C86.9131 16.1703 86.2 15.8687 85.3001 15.8687C84.7449 15.8687 84.2471 15.998 83.8068 16.2564C83.3665 16.5053 83.0171 16.8786 82.7586 17.3764C82.5001 17.8646 82.3709 18.4485 82.3709 19.1282L80.8345 18.2236C80.8249 17.1515 81.0642 16.2085 81.5524 15.3949C82.0502 14.5716 82.7203 13.9303 83.5627 13.4708C84.4051 13.0113 85.3432 12.7815 86.3771 12.7815C88.0906 12.7815 89.402 13.2985 90.3114 14.3323C91.2304 15.3566 91.6899 16.7063 91.6899 18.3815V28.6769H88.2294ZM69.577 28.6769V13.1692H72.6355V17.9795H73.0663V28.6769H69.577ZM78.9247 28.6769V19.3005C78.9247 18.2188 78.6615 17.3764 78.135 16.7733C77.6085 16.1703 76.8906 15.8687 75.9812 15.8687C75.1005 15.8687 74.3921 16.1703 73.856 16.7733C73.3295 17.3764 73.0663 18.1614 73.0663 19.1282L71.5155 18.0944C71.5155 17.0892 71.7644 16.1846 72.2622 15.3805C72.76 14.5764 73.43 13.9446 74.2724 13.4851C75.1244 13.0161 76.0769 12.7815 77.1299 12.7815C78.2882 12.7815 79.255 13.0304 80.0304 13.5282C80.8153 14.0164 81.3993 14.6865 81.7822 15.5385C82.1747 16.3809 82.3709 17.3333 82.3709 18.3959V28.6769H78.9247Z" fill="#9DB7FF"/>
        <path d="M100.797 29.1077C99.2271 29.1077 97.8487 28.7679 96.6617 28.0882C95.4747 27.4086 94.5461 26.4656 93.876 25.2595C93.2155 24.0533 92.8853 22.6653 92.8853 21.0954C92.8853 19.401 93.2107 17.9316 93.8617 16.6872C94.5126 15.4332 95.4172 14.4615 96.5755 13.7723C97.7338 13.0831 99.074 12.7385 100.596 12.7385C102.204 12.7385 103.568 13.1166 104.688 13.8728C105.818 14.6195 106.656 15.6773 107.201 17.0462C107.747 18.415 107.953 20.028 107.819 21.8851H104.387V20.6215C104.377 18.9368 104.08 17.7067 103.497 16.9313C102.913 16.1559 101.994 15.7682 100.74 15.7682C99.3229 15.7682 98.2699 16.2085 97.5806 17.0892C96.8914 17.9603 96.5468 19.2383 96.5468 20.9231C96.5468 22.493 96.8914 23.7087 97.5806 24.5703C98.2699 25.4318 99.275 25.8626 100.596 25.8626C101.448 25.8626 102.18 25.6759 102.793 25.3026C103.415 24.9197 103.894 24.3692 104.229 23.6513L107.646 24.6851C107.053 26.0827 106.134 27.1692 104.889 27.9446C103.654 28.72 102.29 29.1077 100.797 29.1077ZM95.4555 21.8851V19.2718H106.124V21.8851H95.4555Z" fill="#9DB7FF"/>
        <path d="M109.587 28.6769V8H118.13C118.331 8 118.59 8.00957 118.906 8.02872C119.221 8.03829 119.513 8.06701 119.781 8.11487C120.978 8.29675 121.964 8.69402 122.739 9.30667C123.524 9.91932 124.103 10.6947 124.477 11.6328C124.86 12.5614 125.051 13.5952 125.051 14.7344C125.051 15.8639 124.86 16.8978 124.477 17.8359C124.094 18.7644 123.51 19.535 122.725 20.1477C121.95 20.7603 120.968 21.1576 119.781 21.3395C119.513 21.3778 119.217 21.4065 118.891 21.4256C118.575 21.4448 118.322 21.4544 118.13 21.4544H113.047V28.6769H109.587ZM113.047 18.2236H117.987C118.178 18.2236 118.393 18.214 118.633 18.1949C118.872 18.1757 119.092 18.1374 119.293 18.08C119.868 17.9364 120.317 17.6827 120.643 17.319C120.978 16.9552 121.213 16.5436 121.347 16.0841C121.49 15.6246 121.562 15.1747 121.562 14.7344C121.562 14.294 121.49 13.8441 121.347 13.3846C121.213 12.9156 120.978 12.4991 120.643 12.1354C120.317 11.7716 119.868 11.5179 119.293 11.3744C119.092 11.3169 118.872 11.2834 118.633 11.2738C118.393 11.2547 118.178 11.2451 117.987 11.2451H113.047V18.2236Z" fill="#9DB7FF"/>
        <path d="M130.436 29.1077C129.316 29.1077 128.368 28.8971 127.593 28.4759C126.817 28.0451 126.229 27.4756 125.827 26.7672C125.434 26.0588 125.238 25.2786 125.238 24.4267C125.238 23.68 125.362 23.0099 125.611 22.4164C125.86 21.8133 126.243 21.2964 126.76 20.8656C127.277 20.4253 127.947 20.0663 128.77 19.7887C129.392 19.5877 130.12 19.4058 130.953 19.2431C131.795 19.0803 132.704 18.932 133.681 18.7979C134.667 18.6544 135.696 18.5012 136.768 18.3385L135.533 19.0421C135.543 17.9699 135.303 17.1802 134.815 16.6728C134.327 16.1655 133.504 15.9118 132.346 15.9118C131.647 15.9118 130.972 16.0745 130.321 16.4C129.67 16.7255 129.215 17.2855 128.957 18.08L125.798 17.0892C126.181 15.7778 126.908 14.7248 127.98 13.9303C129.062 13.1357 130.517 12.7385 132.346 12.7385C133.724 12.7385 134.935 12.9634 135.978 13.4133C137.031 13.8632 137.812 14.6003 138.319 15.6246C138.596 16.1703 138.764 16.7303 138.821 17.3046C138.879 17.8694 138.908 18.4868 138.908 19.1569V28.6769H135.878V25.3169L136.38 25.8626C135.682 26.9826 134.863 27.8058 133.925 28.3323C132.996 28.8492 131.833 29.1077 130.436 29.1077ZM131.125 26.3508C131.91 26.3508 132.58 26.212 133.135 25.9344C133.69 25.6568 134.131 25.3169 134.456 24.9149C134.791 24.5128 135.016 24.1347 135.131 23.7805C135.313 23.3402 135.414 22.8376 135.433 22.2728C135.461 21.6985 135.476 21.2342 135.476 20.88L136.538 21.1959C135.495 21.3586 134.6 21.5022 133.853 21.6267C133.107 21.7511 132.465 21.8708 131.929 21.9856C131.393 22.0909 130.919 22.2106 130.508 22.3446C130.106 22.4882 129.766 22.6557 129.488 22.8472C129.21 23.0386 128.995 23.2588 128.842 23.5077C128.698 23.7566 128.627 24.0485 128.627 24.3836C128.627 24.7665 128.722 25.1063 128.914 25.4031C129.105 25.6903 129.383 25.92 129.747 26.0923C130.12 26.2646 130.579 26.3508 131.125 26.3508Z" fill="#9DB7FF"/>
        <path d="M147.729 36C146.867 36 146.039 35.866 145.245 35.598C144.46 35.3299 143.751 34.9422 143.12 34.4349C142.488 33.9371 141.971 33.334 141.569 32.6256L144.757 31.0462C145.053 31.6109 145.47 32.0274 146.006 32.2954C146.551 32.573 147.131 32.7118 147.743 32.7118C148.461 32.7118 149.103 32.5826 149.667 32.3241C150.232 32.0752 150.668 31.7019 150.974 31.2041C151.29 30.7159 151.438 30.1033 151.419 29.3662V24.9579H151.85V13.1692H154.88V29.4236C154.88 29.8161 154.861 30.1894 154.822 30.5436C154.794 30.9074 154.741 31.2615 154.664 31.6062C154.435 32.6113 153.994 33.4345 153.343 34.0759C152.692 34.7268 151.883 35.2103 150.917 35.5262C149.959 35.8421 148.897 36 147.729 36ZM147.427 29.1077C146.001 29.1077 144.757 28.7487 143.694 28.0308C142.631 27.3128 141.808 26.3364 141.224 25.1015C140.64 23.8667 140.348 22.4738 140.348 20.9231C140.348 19.3532 140.64 17.9556 141.224 16.7303C141.818 15.4954 142.655 14.5238 143.737 13.8154C144.819 13.0974 146.092 12.7385 147.557 12.7385C149.031 12.7385 150.266 13.0974 151.261 13.8154C152.266 14.5238 153.027 15.4954 153.544 16.7303C154.061 17.9651 154.32 19.3627 154.32 20.9231C154.32 22.4643 154.061 23.8571 153.544 25.1015C153.027 26.3364 152.257 27.3128 151.232 28.0308C150.208 28.7487 148.94 29.1077 147.427 29.1077ZM147.959 26.0062C148.887 26.0062 149.634 25.7956 150.199 25.3744C150.773 24.9436 151.189 24.3453 151.448 23.5795C151.716 22.8137 151.85 21.9282 151.85 20.9231C151.85 19.9084 151.716 19.0229 151.448 18.2667C151.189 17.5009 150.783 16.9074 150.227 16.4862C149.672 16.0554 148.954 15.84 148.074 15.84C147.145 15.84 146.379 16.0697 145.776 16.5292C145.173 16.9791 144.728 17.5918 144.441 18.3672C144.154 19.133 144.01 19.985 144.01 20.9231C144.01 21.8708 144.149 22.7323 144.426 23.5077C144.714 24.2735 145.149 24.8814 145.733 25.3313C146.317 25.7812 147.059 26.0062 147.959 26.0062Z" fill="#9DB7FF"/>
        <path d="M164.521 29.1077C162.951 29.1077 161.572 28.7679 160.385 28.0882C159.198 27.4086 158.27 26.4656 157.6 25.2595C156.939 24.0533 156.609 22.6653 156.609 21.0954C156.609 19.401 156.934 17.9316 157.585 16.6872C158.236 15.4332 159.141 14.4615 160.299 13.7723C161.457 13.0831 162.798 12.7385 164.32 12.7385C165.928 12.7385 167.292 13.1166 168.412 13.8728C169.541 14.6195 170.379 15.6773 170.925 17.0462C171.47 18.415 171.676 20.028 171.542 21.8851H168.11V20.6215C168.101 18.9368 167.804 17.7067 167.22 16.9313C166.636 16.1559 165.717 15.7682 164.463 15.7682C163.046 15.7682 161.993 16.2085 161.304 17.0892C160.615 17.9603 160.27 19.2383 160.27 20.9231C160.27 22.493 160.615 23.7087 161.304 24.5703C161.993 25.4318 162.999 25.8626 164.32 25.8626C165.172 25.8626 165.904 25.6759 166.517 25.3026C167.139 24.9197 167.617 24.3692 167.952 23.6513L171.37 24.6851C170.776 26.0827 169.857 27.1692 168.613 27.9446C167.378 28.72 166.014 29.1077 164.521 29.1077ZM159.179 21.8851V19.2718H169.848V21.8851H159.179Z" fill="#9DB7FF"/>
    </mask>
    <g mask="url(#mask0_2_300)">
        <rect x="29" y="-2" width="79" height="47" fill="#FCFCFC"/>
    </g>
</svg>
