<svg width="362" height="604" viewBox="0 0 362 604" fill="none" xmlns="http://www.w3.org/2000/svg">
    <g filter="url(#filter0_f_2_279)">
        <path fill-rule="evenodd" clip-rule="evenodd" d="M113.424 -101.287C142.847 -92.8013 152.962 -57.4991 173.284 -34.5919C188.044 -17.9547 204.074 -4.27438 216.091 14.4399C232.535 40.0471 257.57 63.7114 255.923 94.0989C254.145 126.887 237.287 163.647 207.277 176.976C177.338 190.275 146.165 158.512 113.424 157.394C82.5885 156.34 52.0241 183.878 24.1169 170.719C-4.29294 157.324 -13.0795 121.891 -24.1856 92.5105C-35.8501 61.6529 -49.9412 29.359 -41.3595 -2.49388C-32.5892 -35.0473 -6.59231 -60.1362 21.8265 -78.275C49.0289 -95.6374 82.4169 -110.23 113.424 -101.287Z" fill="#FAAA79"/>
    </g>
    <g filter="url(#filter1_f_2_279)">
        <path fill-rule="evenodd" clip-rule="evenodd" d="M312.697 -100.63C341.254 -99.0208 366.182 -84.5516 390.214 -69.0429C415.687 -52.6046 444.91 -37.1681 455.217 -8.65758C465.639 20.1735 452.05 50.7444 444.232 80.3878C435.88 112.052 436.348 152.333 408.299 169.234C380.179 186.178 344.664 167.127 312.697 159.644C288.204 153.911 267.601 141.793 244.887 130.982C215.513 117.001 169.835 118.269 160.372 87.1431C150.858 55.8477 193.495 33.2094 205.969 2.97151C216.942 -23.6287 207.915 -58.1107 228.562 -78.1527C249.914 -98.8789 282.987 -102.304 312.697 -100.63Z" fill="#EF8EFF"/>
    </g>
    <g filter="url(#filter2_f_2_279)">
        <path fill-rule="evenodd" clip-rule="evenodd" d="M282.67 107.225C309.652 106.197 336.759 108.332 360.423 121.336C386.422 135.624 415.365 154.259 421.189 183.348C426.947 212.108 400.572 235.979 388.75 262.823C378.482 286.135 373.233 310.802 356.57 330.07C335.924 353.944 313.591 379.158 282.67 385.488C248.63 392.456 212.017 384.643 182.945 365.615C153.051 346.049 125.615 316.05 122.238 280.482C119.004 246.413 149.46 220.331 166.325 190.553C179.211 167.8 187.847 142.328 209.105 127.102C230.274 111.941 256.65 108.216 282.67 107.225Z" fill="#50BDFA"/>
    </g>
    <g filter="url(#filter3_f_2_279)">
        <path fill-rule="evenodd" clip-rule="evenodd" d="M303.67 473.225C330.652 472.197 357.759 474.332 381.423 487.336C407.422 501.624 436.365 520.259 442.189 549.348C447.947 578.108 421.572 601.979 409.75 628.823C399.482 652.135 394.233 676.802 377.57 696.07C356.924 719.944 334.591 745.158 303.67 751.488C269.63 758.456 233.017 750.643 203.945 731.615C174.051 712.049 146.615 682.05 143.238 646.482C140.004 612.413 170.46 586.331 187.325 556.553C200.211 533.8 208.847 508.328 230.105 493.102C251.274 477.941 277.65 474.216 303.67 473.225Z" fill="#FFAE73"/>
    </g>
    <g filter="url(#filter4_f_2_279)">
        <path fill-rule="evenodd" clip-rule="evenodd" d="M70.966 112.819C103.465 102.306 136.787 76.386 168.228 89.7356C199.56 103.039 213.097 142.016 218.775 175.579C224 206.464 211.664 236.718 197.849 264.831C185.72 289.514 164.857 306.497 145.06 325.587C121.361 348.438 103.562 391.798 70.966 387.176C36.9105 382.348 36.54 329.253 10.7112 306.538C-11.0839 287.371 -49.3898 292.298 -64.8497 267.734C-81.2716 241.641 -86.151 204.173 -70.3897 177.675C-54.8173 151.495 -16.9646 153.388 10.7216 140.685C31.3362 131.227 49.3862 119.799 70.966 112.819Z" fill="#699FF0"/>
    </g>
    <g filter="url(#filter5_f_2_279)">
        <path fill-rule="evenodd" clip-rule="evenodd" d="M129.966 478.819C162.465 468.306 195.787 442.386 227.228 455.736C258.56 469.039 272.097 508.016 277.775 541.579C283 572.464 270.664 602.718 256.849 630.831C244.72 655.514 223.857 672.497 204.06 691.587C180.361 714.438 162.562 757.798 129.966 753.176C95.9105 748.348 95.54 695.253 69.7112 672.538C47.9161 653.371 9.61016 658.298 -5.84969 633.734C-22.2716 607.641 -27.151 570.173 -11.3897 543.675C4.18274 517.495 42.0354 519.388 69.7216 506.685C90.3362 497.227 108.386 485.799 129.966 478.819Z" fill="#30B4FF"/>
    </g>
    <g filter="url(#filter6_f_2_279)">
        <path fill-rule="evenodd" clip-rule="evenodd" d="M280.989 297.273C302.141 303.307 321.576 309.594 342.106 317.492C371.857 328.938 409.664 327.78 428.024 353.838C447.492 381.47 445.047 419.484 437.118 452.342C428.738 487.07 414.63 525.578 382.711 541.621C351.48 557.319 315.942 531.022 280.989 530.817C246.37 530.614 208.685 560.006 180.129 540.434C151.675 520.933 159.602 477.043 153.101 443.166C147.556 414.268 139.099 386.256 145.014 357.432C151.488 325.884 158.465 286.54 187.917 273.51C217.933 260.23 249.425 288.27 280.989 297.273Z" fill="#8845F5"/>
    </g>
    <g filter="url(#filter7_f_2_279)">
        <path fill-rule="evenodd" clip-rule="evenodd" d="M75.6726 237.411C107.666 233.608 137.793 256.808 159.466 280.648C178.73 301.837 175.179 333.717 186.957 359.821C201.018 390.988 237.79 413.629 234.831 447.693C231.8 482.598 201.853 510.162 172.269 528.933C143.823 546.982 109.311 546.834 75.6726 548.679C39.8565 550.643 -1.39223 562.94 -28.9417 539.969C-56.4331 517.046 -50.3577 474.127 -56.1089 438.798C-60.8754 409.518 -71.4471 379.216 -59.5333 352.048C-48.0466 325.855 -16.6123 317.483 5.20307 298.986C29.5926 278.307 43.92 241.186 75.6726 237.411Z" fill="#6F86FF"/>
    </g>
    <defs>
        <filter id="filter0_f_2_279" x="-114" y="-174" width="440" height="424.224" filterUnits="userSpaceOnUse" color-interpolation-filters="sRGB">
            <feFlood flood-opacity="0" result="BackgroundImageFix"/>
            <feBlend mode="normal" in="SourceGraphic" in2="BackgroundImageFix" result="shape"/>
            <feGaussianBlur stdDeviation="35" result="effect1_foregroundBlur_2_279"/>
        </filter>
        <filter id="filter1_f_2_279" x="89" y="-171" width="440" height="417.054" filterUnits="userSpaceOnUse" color-interpolation-filters="sRGB">
            <feFlood flood-opacity="0" result="BackgroundImageFix"/>
            <feBlend mode="normal" in="SourceGraphic" in2="BackgroundImageFix" result="shape"/>
            <feGaussianBlur stdDeviation="35" result="effect1_foregroundBlur_2_279"/>
        </filter>
        <filter id="filter2_f_2_279" x="52" y="37" width="440" height="421" filterUnits="userSpaceOnUse" color-interpolation-filters="sRGB">
            <feFlood flood-opacity="0" result="BackgroundImageFix"/>
            <feBlend mode="normal" in="SourceGraphic" in2="BackgroundImageFix" result="shape"/>
            <feGaussianBlur stdDeviation="35" result="effect1_foregroundBlur_2_279"/>
        </filter>
        <filter id="filter3_f_2_279" x="73" y="403" width="440" height="421" filterUnits="userSpaceOnUse" color-interpolation-filters="sRGB">
            <feFlood flood-opacity="0" result="BackgroundImageFix"/>
            <feBlend mode="normal" in="SourceGraphic" in2="BackgroundImageFix" result="shape"/>
            <feGaussianBlur stdDeviation="35" result="effect1_foregroundBlur_2_279"/>
        </filter>
        <filter id="filter4_f_2_279" x="-150" y="16" width="440" height="441.518" filterUnits="userSpaceOnUse" color-interpolation-filters="sRGB">
            <feFlood flood-opacity="0" result="BackgroundImageFix"/>
            <feBlend mode="normal" in="SourceGraphic" in2="BackgroundImageFix" result="shape"/>
            <feGaussianBlur stdDeviation="35" result="effect1_foregroundBlur_2_279"/>
        </filter>
        <filter id="filter5_f_2_279" x="-91" y="382" width="440" height="441.518" filterUnits="userSpaceOnUse" color-interpolation-filters="sRGB">
            <feFlood flood-opacity="0" result="BackgroundImageFix"/>
            <feBlend mode="normal" in="SourceGraphic" in2="BackgroundImageFix" result="shape"/>
            <feGaussianBlur stdDeviation="35" result="effect1_foregroundBlur_2_279"/>
        </filter>
        <filter id="filter6_f_2_279" x="73" y="200" width="440" height="417.16" filterUnits="userSpaceOnUse" color-interpolation-filters="sRGB">
            <feFlood flood-opacity="0" result="BackgroundImageFix"/>
            <feBlend mode="normal" in="SourceGraphic" in2="BackgroundImageFix" result="shape"/>
            <feGaussianBlur stdDeviation="35" result="effect1_foregroundBlur_2_279"/>
        </filter>
        <filter id="filter7_f_2_279" x="-135" y="167" width="440" height="456.721" filterUnits="userSpaceOnUse" color-interpolation-filters="sRGB">
            <feFlood flood-opacity="0" result="BackgroundImageFix"/>
            <feBlend mode="normal" in="SourceGraphic" in2="BackgroundImageFix" result="shape"/>
            <feGaussianBlur stdDeviation="35" result="effect1_foregroundBlur_2_279"/>
        </filter>
    </defs>
</svg>
