<svg width="114" height="30" viewBox="0 0 114 30" fill="none" xmlns="http://www.w3.org/2000/svg">
    <path d="M57.0699 6.25006V23.75C57.069 23.8161 57.0424 23.8791 56.9957 23.9258C56.949 23.9725 56.8859 23.9992 56.8199 24H54.9999C54.5822 24.0003 54.171 23.8959 53.8041 23.6961C53.4372 23.4964 53.1263 23.2077 52.8999 22.8567L44.6399 10.0901L44.9233 16.4667V23.75C44.9224 23.8161 44.8958 23.8791 44.8491 23.9258C44.8024 23.9725 44.7393 23.9992 44.6733 24H42.2666C42.2006 23.9992 42.1375 23.9725 42.0908 23.9258C42.0441 23.8791 42.0175 23.8161 42.0166 23.75V6.25006C42.0175 6.18402 42.0441 6.12094 42.0908 6.07424C42.1375 6.02754 42.2006 6.00092 42.2666 6.00006H44.0766C44.4939 6.00028 44.9045 6.10466 45.2712 6.30373C45.6379 6.50281 45.9491 6.79027 46.1766 7.14006L54.4366 19.8867L54.1799 13.5334V6.25006C54.1799 6.18376 54.2062 6.12017 54.2531 6.07328C54.3 6.0264 54.3636 6.00006 54.4299 6.00006H56.8366C56.8997 6.00505 56.9586 6.03348 57.0018 6.07975C57.045 6.12602 57.0693 6.18677 57.0699 6.25006Z" fill="white"/>
    <path d="M81.6664 24H79.1197C79.0799 23.9996 79.0408 23.9898 79.0056 23.9712C78.9704 23.9527 78.9401 23.926 78.9173 23.8934C78.8944 23.8608 78.8797 23.8232 78.8744 23.7838C78.869 23.7443 78.8731 23.7042 78.8864 23.6667L85.633 6.24005C85.6619 6.16708 85.7126 6.10484 85.7783 6.06187C85.8439 6.0189 85.9213 5.9973 85.9997 6.00005H89.1897C89.2653 6.0007 89.339 6.02389 89.4013 6.06664C89.4636 6.10939 89.5118 6.16977 89.5397 6.24005L96.2663 23.6667C96.2796 23.7042 96.2837 23.7443 96.2783 23.7838C96.273 23.8232 96.2583 23.8608 96.2354 23.8934C96.2126 23.926 96.1823 23.9527 96.1471 23.9712C96.1119 23.9898 96.0728 23.9996 96.033 24H93.4863C93.4354 24.0002 93.3855 23.9851 93.3433 23.9565C93.3011 23.928 93.2684 23.8874 93.2497 23.84L87.813 9.50671C87.7955 9.45844 87.7636 9.41675 87.7215 9.38728C87.6795 9.35781 87.6294 9.342 87.578 9.342C87.5267 9.342 87.4766 9.35781 87.4345 9.38728C87.3925 9.41675 87.3605 9.45844 87.343 9.50671L81.9064 23.84C81.8874 23.8879 81.8542 23.9289 81.8114 23.9575C81.7685 23.9861 81.7179 24.0009 81.6664 24Z" fill="white"/>
    <path d="M113.947 23.5967L108.887 17.1334C111.743 16.5934 113.413 14.6667 113.413 11.71C113.413 8.31339 111.203 6.00006 107.293 6.00006H100.237C100.138 6.00006 100.043 6.03939 99.9726 6.10941C99.9026 6.17942 99.8633 6.27438 99.8633 6.37339C99.8633 6.68856 99.9254 7.00065 100.046 7.29183C100.167 7.58301 100.343 7.84759 100.566 8.07045C100.789 8.29331 101.054 8.47009 101.345 8.5907C101.636 8.71131 101.948 8.77339 102.263 8.77339H107C109.363 8.77339 110.497 9.98339 110.497 11.73C110.497 13.4767 109.39 14.73 107 14.73H100.237C100.137 14.7309 100.042 14.771 99.9724 14.8415C99.9025 14.9121 99.8633 15.0074 99.8633 15.1067V23.7733C99.8633 23.8397 99.8896 23.9032 99.9365 23.9501C99.9834 23.997 100.047 24.0233 100.113 24.0233H102.52C102.586 24.0225 102.649 23.9959 102.696 23.9492C102.742 23.9025 102.769 23.8394 102.77 23.7733V17.29H105.547L109.937 23.02C110.172 23.3266 110.475 23.5747 110.822 23.7447C111.169 23.9147 111.55 24.0021 111.937 24H113.763C113.809 23.9975 113.853 23.9825 113.891 23.9568C113.928 23.931 113.958 23.8954 113.977 23.8539C113.996 23.8123 114.003 23.7664 113.998 23.721C113.992 23.6757 113.975 23.6327 113.947 23.5967Z" fill="white"/>
    <path d="M74.0566 6.00006H62.89C62.8016 6.00006 62.7168 6.03518 62.6543 6.09769C62.5918 6.1602 62.5566 6.24499 62.5566 6.33339C62.5566 6.9814 62.8141 7.60287 63.2723 8.06109C63.7305 8.5193 64.352 8.77672 65 8.77672H74.0566C74.0896 8.77717 74.1223 8.77101 74.1528 8.7586C74.1834 8.7462 74.2111 8.7278 74.2344 8.7045C74.2577 8.68119 74.2761 8.65345 74.2885 8.62292C74.3009 8.59239 74.3071 8.55968 74.3066 8.52672V6.25006C74.3066 6.18376 74.2803 6.12017 74.2334 6.07328C74.1865 6.0264 74.1229 6.00006 74.0566 6.00006ZM74.0566 21.2234H65.7233C65.6573 21.2225 65.5942 21.1959 65.5475 21.1492C65.5008 21.1025 65.4742 21.0394 65.4733 20.9734V16.46C65.4733 16.3937 65.4996 16.3301 65.5465 16.2833C65.5934 16.2364 65.657 16.21 65.7233 16.21H73.4266C73.4929 16.21 73.5565 16.1837 73.6034 16.1368C73.6503 16.0899 73.6766 16.0263 73.6766 15.96V13.6667C73.6766 13.6004 73.6503 13.5368 73.6034 13.4899C73.5565 13.443 73.4929 13.4167 73.4266 13.4167H62.93C62.8307 13.4176 62.7357 13.4577 62.6658 13.5282C62.5959 13.5987 62.5566 13.6941 62.5566 13.7934V23.6133C62.5566 23.7124 62.596 23.8073 62.666 23.8773C62.736 23.9473 62.831 23.9867 62.93 23.9867H74.0566C74.1229 23.9867 74.1865 23.9603 74.2334 23.9135C74.2803 23.8666 74.3066 23.803 74.3066 23.7367V21.46C74.304 21.3958 74.2764 21.3351 74.2297 21.2909C74.183 21.2467 74.1209 21.2224 74.0566 21.2234Z" fill="white"/>
    <path d="M24.0799 1.52339L17.8066 10.8334C17.705 10.9677 17.658 11.1356 17.6751 11.3033C17.6922 11.4709 17.7721 11.6258 17.8988 11.7369C18.0255 11.848 18.1896 11.9069 18.358 11.902C18.5264 11.897 18.6867 11.8284 18.8066 11.71L24.9799 6.37672C25.0155 6.34408 25.0599 6.3226 25.1076 6.31496C25.1553 6.30731 25.2042 6.31383 25.2482 6.33371C25.2922 6.35359 25.3294 6.38594 25.3552 6.42677C25.381 6.4676 25.3942 6.5151 25.3933 6.56338V23.3267C25.3928 23.3776 25.3767 23.4271 25.3473 23.4686C25.3179 23.5102 25.2766 23.5418 25.2287 23.5592C25.1809 23.5766 25.1289 23.5789 25.0797 23.566C25.0304 23.553 24.9863 23.5254 24.9533 23.4867L6.28665 1.15339C5.98865 0.794853 5.61583 0.505835 5.19434 0.306602C4.77284 0.107369 4.31286 0.00274467 3.84666 6.25706e-05H3.19666C2.34885 6.25706e-05 1.53577 0.336852 0.93628 0.936342C0.33679 1.53583 0 2.34892 0 3.19672V26.8033C0 27.6511 0.33679 28.4642 0.93628 29.0637C1.53577 29.6632 2.34885 30 3.19666 30C3.74293 29.9999 4.28007 29.8599 4.75682 29.5932C5.23357 29.3265 5.63403 28.9421 5.91998 28.4767L12.1933 19.1667C12.295 19.0323 12.342 18.8644 12.3249 18.6968C12.3077 18.5292 12.2278 18.3743 12.1011 18.2632C11.9744 18.1521 11.8103 18.0931 11.6419 18.0981C11.4735 18.1031 11.3132 18.1717 11.1933 18.29L5.01999 23.6233C4.9844 23.656 4.94 23.6775 4.89232 23.6851C4.84464 23.6928 4.79576 23.6862 4.75175 23.6664C4.70774 23.6465 4.67053 23.6141 4.64473 23.5733C4.61894 23.5325 4.6057 23.485 4.60666 23.4367V6.69005C4.60716 6.63915 4.62318 6.58962 4.65259 6.54808C4.68199 6.50654 4.72337 6.47496 4.77121 6.45757C4.81904 6.44017 4.87104 6.43779 4.92026 6.45075C4.96948 6.4637 5.01358 6.49136 5.04665 6.53005L23.7133 28.8633C24.0135 29.2186 24.3877 29.5041 24.8097 29.6999C25.2318 29.8956 25.6914 29.9969 26.1566 29.9967H26.8233C27.2431 29.9967 27.6587 29.914 28.0466 29.7533C28.4344 29.5927 28.7868 29.3572 29.0836 29.0604C29.3805 28.7635 29.6159 28.4112 29.7766 28.0233C29.9372 27.6355 30.0199 27.2198 30.0199 26.8V3.19672C30.0199 2.77524 29.9366 2.35792 29.7747 1.96878C29.6128 1.57963 29.3755 1.22634 29.0766 0.929242C28.7776 0.632142 28.4229 0.397096 28.0327 0.23763C27.6426 0.0781638 27.2247 -0.00257442 26.8033 6.25706e-05C26.257 0.000128107 25.7199 0.140183 25.2431 0.406861C24.7664 0.673539 24.3659 1.05794 24.0799 1.52339Z" fill="white"/>
</svg>
