<svg width="69" height="69" viewBox="0 0 69 69" fill="none" xmlns="http://www.w3.org/2000/svg">
<mask id="mask0_2_970" style="mask-type:alpha" maskUnits="userSpaceOnUse" x="0" y="0" width="69" height="69">
<rect width="69" height="69" rx="10" fill="#C4C4C4"/>
</mask>
<g mask="url(#mask0_2_970)">
<path d="M-12.3215 -12.7778H80.0892V83.0556H-12.3215V-12.7778Z" fill="#2F80ED"/>
<path fill-rule="evenodd" clip-rule="evenodd" d="M31.662 14.4774C32.4548 14.0034 33.3539 13.7538 34.269 13.7538C35.1841 13.7538 36.0832 14.0034 36.876 14.4774C36.8769 14.4779 36.8778 14.4785 36.8787 14.479L50.3553 22.4651C51.148 22.9397 51.8064 23.6222 52.2644 24.444C52.7225 25.2657 52.9641 26.198 52.965 27.1472V43.1223C52.9641 44.0716 52.7225 45.0038 52.2644 45.8256C51.8064 46.6474 51.148 47.3298 50.3553 47.8044L50.35 47.8076L36.8787 55.7905C36.8778 55.7911 36.8768 55.7917 36.8758 55.7923C36.0831 56.2662 35.1841 56.5157 34.269 56.5157C33.3539 56.5157 32.4549 56.2662 31.6622 55.7923C31.6612 55.7917 31.6602 55.7911 31.6592 55.7905L18.188 47.8076L18.1827 47.8044C17.39 47.3298 16.7316 46.6474 16.2736 45.8256C15.8155 45.0038 15.5739 44.0716 15.5729 43.1223V27.1472C15.5739 26.198 15.8155 25.2657 16.2736 24.444C16.7316 23.6222 17.39 22.9397 18.1827 22.4651L18.188 22.462L31.6592 14.479C31.6602 14.4785 31.6611 14.4779 31.662 14.4774ZM34.269 16.5934C33.8334 16.5934 33.4055 16.7123 33.0283 16.9381L33.023 16.9413L19.5517 24.9242C19.551 24.9247 19.5502 24.9251 19.5494 24.9256C19.1736 25.1512 18.8614 25.4751 18.6441 25.865C18.4265 26.2555 18.3116 26.6984 18.311 27.1495V43.1201C18.3116 43.5711 18.4265 44.0141 18.6441 44.4046C18.8615 44.7945 19.1737 45.1185 19.5496 45.3441C19.5503 45.3445 19.551 45.3449 19.5517 45.3453L33.0283 53.3314C33.4055 53.5573 33.8334 53.6762 34.269 53.6762C34.7046 53.6762 35.1325 53.5573 35.5097 53.3315L35.515 53.3283L48.9863 45.3453C48.987 45.3449 48.9877 45.3445 48.9884 45.3441C49.3643 45.1185 49.6765 44.7945 49.8939 44.4046C50.1116 44.0139 50.2265 43.5707 50.227 43.1194V27.1501C50.2265 26.6989 50.1116 26.2557 49.8939 25.865C49.6766 25.4751 49.3644 25.1512 48.9886 24.9256C48.9878 24.9252 48.987 24.9247 48.9863 24.9242L35.5097 16.9381C35.1325 16.7123 34.7046 16.5934 34.269 16.5934Z" fill="white"/>
<path fill-rule="evenodd" clip-rule="evenodd" d="M24.4201 18.8716C24.7983 18.1927 25.6357 17.9603 26.2904 18.3526L34.269 23.1332L42.2476 18.3526C42.9023 17.9603 43.7396 18.1927 44.1179 18.8716C44.4962 19.5505 44.2721 20.4189 43.6174 20.8112L34.9539 26.0022C34.5301 26.2561 34.0079 26.2561 33.5841 26.0022L24.9206 20.8112C24.2659 20.4189 24.0418 19.5505 24.4201 18.8716Z" fill="white"/>
<path fill-rule="evenodd" clip-rule="evenodd" d="M15.7566 34.4245C16.1349 33.7456 16.9722 33.5132 17.6269 33.9055L26.2904 39.0965C26.7138 39.3501 26.9746 39.8187 26.9746 40.3258V50.6878C26.9746 51.4719 26.3616 52.1075 25.6055 52.1075C24.8494 52.1075 24.2365 51.4719 24.2365 50.6878V41.1452L16.2571 36.3641C15.6024 35.9718 15.3783 35.1035 15.7566 34.4245Z" fill="white"/>
<path fill-rule="evenodd" clip-rule="evenodd" d="M52.7814 34.4245C53.1597 35.1035 52.9356 35.9718 52.2809 36.3641L44.3015 41.1452V50.6878C44.3015 51.4719 43.6886 52.1075 42.9325 52.1075C42.1764 52.1075 41.5634 51.4719 41.5634 50.6878V40.3258C41.5634 39.8187 41.8242 39.3501 42.2476 39.0965L50.9111 33.9055C51.5658 33.5132 52.4031 33.7456 52.7814 34.4245Z" fill="white"/>
<path fill-rule="evenodd" clip-rule="evenodd" d="M16.2767 24.3614C16.6553 23.6827 17.4928 23.4508 18.1473 23.8434L34.269 33.5146L50.3907 23.8434C51.0452 23.4508 51.8827 23.6827 52.2613 24.3614C52.6399 25.0402 52.4162 25.9087 51.7617 26.3013L34.9545 36.3837C34.5304 36.6382 34.0076 36.6382 33.5835 36.3837L16.7763 26.3013C16.1218 25.9087 15.8981 25.0402 16.2767 24.3614Z" fill="white"/>
<path fill-rule="evenodd" clip-rule="evenodd" d="M34.269 33.7151C35.0251 33.7151 35.6381 34.3507 35.6381 35.1348V55.2598C35.6381 56.0439 35.0251 56.6796 34.269 56.6796C33.5129 56.6796 32.9 56.0439 32.9 55.2598V35.1348C32.9 34.3507 33.5129 33.7151 34.269 33.7151Z" fill="white"/>
</g>
</svg>
